<?xml version="1.0" encoding="UTF-8"?>
<svg version="1.1" xmlns="http://www.w3.org/2000/svg" width="1024" height="1024">
<path d="M0 0 C337.92 0 675.84 0 1024 0 C1024 337.92 1024 675.84 1024 1024 C686.08 1024 348.16 1024 0 1024 C0 686.08 0 348.16 0 0 Z " fill="#FEFEFE" transform="translate(0,0)"/>
<path d="M0 0 C2.25092058 2.25092058 3.5890608 4.1781216 5 7 C4.59008458 17.07950488 1.86999718 26.79555845 -0.4609375 36.56640625 C-0.92359165 38.52682732 -1.38565925 40.4873869 -1.84718323 42.44807434 C-2.83393327 46.63470757 -3.82464939 50.82037411 -4.818573 55.00531006 C-6.39251235 61.63244677 -7.95781384 68.26160477 -9.52172852 74.89111328 C-11.38968852 82.80707981 -13.25963634 90.72257106 -15.13235569 98.63741302 C-18.16599016 111.45944562 -21.18560516 124.28469637 -24.19140625 137.11328125 C-24.49287976 138.3998764 -24.49287976 138.3998764 -24.80044365 139.71246338 C-25.79098582 143.9401842 -26.78121309 148.16797868 -27.77127075 152.39581299 C-29.71008412 160.67450357 -31.65173621 168.95252843 -33.59375 177.23046875 C-33.78091646 178.02832794 -33.96808292 178.82618713 -34.1609211 179.64822388 C-36.77827666 190.80468035 -39.40201951 201.95961768 -42.03125 213.11328125 C-42.35907493 214.50413393 -42.68689476 215.89498781 -43.01470947 217.2858429 C-43.25716211 218.31451807 -43.25716211 218.31451807 -43.50451279 219.36397457 C-44.31555986 222.80513762 -45.12655557 226.24631276 -45.9375 229.6875 C-46.17604958 230.69970045 -46.17604958 230.69970045 -46.41941833 231.7323494 C-51.732433 254.27838692 -56.99307788 276.8363804 -62.23272705 299.39957523 C-63.73782891 305.87986684 -65.24604753 312.35942732 -66.75585938 318.83862305 C-67.59255853 322.43015002 -68.42911946 326.02170918 -69.265625 329.61328125 C-69.571586 330.92666631 -69.571586 330.92666631 -69.88372803 332.2665844 C-72.29599031 342.62483318 -74.68828661 352.98723529 -77.04582214 363.358078 C-78.22829576 368.55802263 -79.42564815 373.75450755 -80.62417603 378.95077515 C-81.15967095 381.28759536 -81.68910941 383.62581304 -82.21200562 385.96548462 C-82.91643688 389.11613317 -83.64119884 392.26141996 -84.37109375 395.40625 C-84.56608459 396.30502365 -84.76107544 397.2037973 -84.9619751 398.12980652 C-86.27446351 403.66078147 -87.96222904 406.95862353 -92 411 C-95.53705246 412.76852623 -99.13866804 412.52684713 -103 412 C-106.57600053 410.65999575 -109.77620134 408.8079048 -113.0625 406.875 C-114.0114917 406.3372998 -114.9604834 405.79959961 -115.93823242 405.24560547 C-118.97173778 403.51848574 -121.98712633 401.76283103 -125 400 C-126.96348784 398.85928235 -128.92702915 397.71865672 -130.890625 396.578125 C-133.86938633 394.843594 -136.84583887 393.10541375 -139.81787109 391.359375 C-148.09193781 386.50120739 -156.4458526 381.79712873 -164.82617188 377.12524414 C-171.67517767 373.30581352 -178.50366507 369.4530871 -185.3125 365.5625 C-186.1780249 365.07088379 -187.0435498 364.57926758 -187.93530273 364.07275391 C-191.55150968 362.01188585 -195.14312218 359.93828582 -198.65234375 357.69921875 C-205.72082144 353.12464387 -205.72082144 353.12464387 -213.86328125 352.14453125 C-218.86602814 354.14745916 -221.82162181 358.84928901 -225 363 C-225.87271868 364.09817101 -226.74779101 365.19447497 -227.625 366.2890625 C-229.97607494 369.23801108 -232.29331976 372.211793 -234.6015625 375.19433594 C-242.45746263 385.33788296 -250.44483306 395.37293374 -258.59619141 405.28076172 C-259.80299058 406.75872342 -260.98771309 408.25466257 -262.16796875 409.75390625 C-264.7653667 412.95908385 -266.29680023 414.72423539 -270.1875 416.25 C-273 416 -273 416 -275.375 414.75 C-280.20844125 406.57033019 -276.22040575 392.91953729 -275.1015625 383.765625 C-274.90416893 382.11664564 -274.70718541 380.46761714 -274.5105896 378.81854248 C-274.09945166 375.38225341 -273.6837471 371.94655745 -273.26464844 368.51123047 C-272.72953153 364.12225161 -272.20541502 359.73204215 -271.68462563 355.34134293 C-271.28046737 351.94353355 -270.87077034 348.54640964 -270.45939255 345.14946747 C-270.26401096 343.53103992 -270.07026196 341.91241436 -269.87822342 340.29358673 C-269.60879614 338.02996803 -269.33196782 335.76737052 -269.05322266 333.50488281 C-268.89777985 332.2212384 -268.74233704 330.93759399 -268.58218384 329.61505127 C-267.50498489 322.92622004 -266.21417463 318.62385268 -261.4375 313.75 C-258.01980224 310.15628347 -254.73662124 306.55000608 -251.625 302.6875 C-248.19213811 298.43872903 -244.68779003 294.26454153 -241.125 290.125 C-237.23028317 285.59965713 -233.3504007 281.06312852 -229.5 276.5 C-225.64959759 271.93686945 -221.76951153 267.40052099 -217.875 262.875 C-214.36330451 258.79142534 -210.89615284 254.68082353 -207.5 250.5 C-201.62596304 243.2712302 -195.51941302 236.24297133 -189.43847656 229.18847656 C-183.65088944 222.47080638 -177.92711379 215.71893791 -172.3359375 208.8359375 C-168.64107329 204.35019934 -164.84039178 199.95645166 -161.05078125 195.55078125 C-154.80572679 188.28968997 -148.6036885 180.99446571 -142.5625 173.5625 C-138.60491812 168.69870975 -134.53457554 163.94118769 -130.44165039 159.19165039 C-126.66359544 154.7984375 -122.98614435 150.33219601 -119.3359375 145.83203125 C-116.6480305 142.57328113 -113.88954946 139.38115255 -111.125 136.1875 C-106.63783728 130.99602313 -102.35352276 125.6832815 -98.15161133 120.25952148 C-94.82141082 115.98501614 -91.35733212 111.84777247 -87.8125 107.75 C-83.07140955 102.26787906 -78.47213164 96.70522425 -74 91 C-73.13201772 89.9253713 -72.26349575 88.85117837 -71.39453125 87.77734375 C-66.89256865 82.15150992 -62.93929514 77.06457515 -61 70 C-77.92988171 80.36455357 -92.92960692 93.16146445 -108 106 C-108.58749023 106.49967285 -109.17498047 106.9993457 -109.78027344 107.51416016 C-115.64495334 112.50500592 -121.49079548 117.50458054 -127.1875 122.6875 C-130.43670399 125.64132181 -133.75874685 128.44449748 -137.1875 131.1875 C-143.25320218 136.09003486 -148.88164977 141.42258037 -154.5546875 146.76953125 C-157.68043182 149.7128424 -160.86873161 152.56830219 -164.12109375 155.37109375 C-168.13576169 158.8515855 -172.05673094 162.43910854 -176 166 C-181.28259058 170.77033937 -186.57934135 175.51894407 -191.9453125 180.1953125 C-195.99969003 183.75638173 -199.9951293 187.3834804 -204 191 C-209.28259058 195.77033937 -214.57934135 200.51894407 -219.9453125 205.1953125 C-223.99969003 208.75638173 -227.9951293 212.3834804 -232 216 C-237.27985576 220.76786975 -242.57291806 225.51512218 -247.9375 230.1875 C-250.30964429 232.27211164 -252.65556065 234.38428644 -255 236.5 C-258.62432158 239.77072923 -262.27883178 243.0016922 -265.9609375 246.20703125 C-268.20289813 248.17841043 -270.41385803 250.18162691 -272.625 252.1875 C-276.60544807 255.78451041 -280.66053131 259.27881196 -284.75 262.75 C-290.95570304 268.02569768 -296.92728128 273.52295179 -302.875 279.0859375 C-306.50871481 282.4827654 -310.19572735 285.79508759 -314 289 C-314.64066406 289.58910156 -315.28132812 290.17820312 -315.94140625 290.78515625 C-316.60011719 291.35105469 -317.25882813 291.91695313 -317.9375 292.5 C-318.50339844 293.0053125 -319.06929688 293.510625 -319.65234375 294.03125 C-327.90828877 297.43802931 -338.44836171 291.50781072 -346.22265625 288.5234375 C-347.71633791 287.95896208 -349.21038023 287.39544024 -350.70475769 286.83280945 C-354.67740582 285.33423136 -358.64516985 283.82312261 -362.61195374 282.3091011 C-366.70005633 280.75079502 -370.79203281 279.20273406 -374.88378906 277.65405273 C-379.75115903 275.81125577 -384.61819087 273.9675995 -389.48324585 272.11869812 C-398.47585997 268.70238919 -407.48034592 265.32449873 -416.51171875 262.01171875 C-418.39251446 261.3192213 -420.27329341 260.62667832 -422.15405273 259.93408203 C-424.67171381 259.00747964 -427.19027788 258.08409565 -429.71316528 257.17181396 C-431.94265082 256.36503034 -434.16699506 255.54541188 -436.390625 254.72265625 C-437.58719727 254.28703369 -438.78376953 253.85141113 -440.01660156 253.40258789 C-443.10306051 251.95154807 -444.88761456 250.66273751 -447 248 C-447.5625 244.5625 -447.5625 244.5625 -447 241 C-442.79903512 235.68467391 -437.04511578 233.08214881 -431.125 230 C-428.95078602 228.84700524 -426.77763413 227.69200581 -424.60546875 226.53515625 C-422.9510376 225.65561279 -422.9510376 225.65561279 -421.26318359 224.75830078 C-416.27267821 222.06926743 -411.35665736 219.25427186 -406.4375 216.4375 C-397.92748211 211.58293813 -389.30907602 206.9930731 -380.60058594 202.50610352 C-374.04028448 199.10916038 -367.59630497 195.54881909 -361.1875 191.875 C-351.46408628 186.30619016 -341.60120987 181.03159999 -331.6875 175.8125 C-322.23603463 170.83621027 -312.79738026 165.8564365 -303.48779297 160.61767578 C-297.1425117 157.05367947 -290.72834061 153.62249676 -284.3125 150.1875 C-276.06463126 145.76789182 -267.87551149 141.26558108 -259.75 136.625 C-250.28031414 131.21956413 -240.68939917 126.07144013 -231.05432129 120.9697876 C-222.79987198 116.59637853 -214.60950653 112.13886053 -206.5 107.5 C-197.64787527 102.4372281 -188.69496087 97.59099678 -179.6875 92.8125 C-169.58325539 87.45103214 -159.53080614 82.01503823 -149.55126953 76.42431641 C-144.00284806 73.32675747 -138.43825082 70.25831828 -132.875 67.1875 C-132.25122467 66.84302826 -131.62744934 66.49855652 -130.98477173 66.14364624 C-122.55472092 61.48965921 -114.10183868 56.88087711 -105.625 52.3125 C-97.9464376 48.17393875 -90.32844683 43.94401966 -82.75 39.625 C-73.65466602 34.44237277 -64.45852101 29.4649069 -55.21594238 24.55160522 C-46.90768787 20.13258496 -38.67553993 15.59787456 -30.5 10.9375 C-27.78095084 9.39717589 -25.06074158 7.858945 -22.33935547 6.32275391 C-20.8856598 5.50078322 -19.43380418 4.67553838 -17.98486328 3.84521484 C-7.03670746 -2.38745432 -7.03670746 -2.38745432 0 0 Z " fill="#2671AE" transform="translate(809,212)"/>
<path d="M0 0 C1.43348212 3.40452003 1.51361669 5.71548107 1 9.375 C-2.5604856 14.33263818 -6.19644863 15.24111146 -11.91796875 16.23632812 C-13.38169922 16.4596582 -13.38169922 16.4596582 -14.875 16.6875 C-15.84308594 16.85572266 -16.81117188 17.02394531 -17.80859375 17.19726562 C-31.44132653 19.46938776 -31.44132653 19.46938776 -35.9375 16.3125 C-38.52001338 12.63437488 -38.72125695 10.78268137 -38 6.375 C-35.95135325 3.21666959 -34.32161365 2.48014292 -30.75 1.3125 C-29.16955297 0.98571584 -27.58549575 0.67633691 -26 0.375 C-24.12054688 -0.03105469 -24.12054688 -0.03105469 -22.203125 -0.4453125 C-20.80239935 -0.7359025 -19.4013524 -1.02494767 -18 -1.3125 C-17.33581055 -1.45631104 -16.67162109 -1.60012207 -15.98730469 -1.74829102 C-10.70534631 -2.78067379 -4.41545551 -3.5875576 0 0 Z " fill="#2671AC" transform="translate(305,748.625)"/>
<path d="M0 0 C1.04542969 0.03738281 2.09085938 0.07476563 3.16796875 0.11328125 C4.37066406 0.17902344 5.57335937 0.24476563 6.8125 0.3125 C8.2877154 0.36966334 9.76297898 0.42559296 11.23828125 0.48046875 C12.76310977 0.54748526 14.28785253 0.61648365 15.8125 0.6875 C16.54235107 0.71803467 17.27220215 0.74856934 18.02416992 0.7800293 C21.70930004 0.98773274 24.70773464 1.21965816 27.8125 3.3125 C29.90929403 6.00837803 29.80760821 7.405444 29.625 10.875 C28.55163043 15.41617893 28.55163043 15.41617893 25.8125 17.3125 C17.13133623 20.20622126 3.67760511 19.1578847 -4.8125 15.9375 C-7.1875 14.3125 -7.1875 14.3125 -9.1875 11.3125 C-9.85651022 5.17990635 -9.85651022 5.17990635 -7.48828125 2.109375 C-4.693519 -0.07329161 -3.50200249 -0.14324129 0 0 Z " fill="#2670AC" transform="translate(213.1875,750.6875)"/>
<path d="M0 0 C2.44681161 2.28369084 2.93698958 3.62981379 3.5 6.9375 C2.81070492 11.15943238 1.2620075 12.24337395 -2 15 C-5.01119837 16.67950035 -8.12495966 18.00523637 -11.3125 19.3125 C-12.12912109 19.67150391 -12.94574219 20.03050781 -13.78710938 20.40039062 C-19.11399732 22.62877005 -23.22575554 23.54054051 -29 23 C-32.06458538 20.95694308 -32.82153128 19.55920198 -33.9375 16.0625 C-34.01438601 12.29508556 -33.23698059 10.99768972 -31 8 C-27.12476177 5.68528538 -22.88845409 4.19871106 -18.6875 2.5625 C-17.55892578 2.09134766 -16.43035156 1.62019531 -15.26757812 1.13476562 C-14.17251953 0.69970703 -13.07746094 0.26464844 -11.94921875 -0.18359375 C-10.95237061 -0.58118896 -9.95552246 -0.97878418 -8.9284668 -1.38842773 C-5.29536861 -2.14715312 -3.35564071 -1.49474472 0 0 Z " fill="#2671AD" transform="translate(363,731)"/>
<path d="M0 0 C2.88293954 1.72976372 3.02200887 3.07923193 3.9375 6.375 C4.01669659 10.96840209 3.13419162 11.71470428 0 15 C-2.61752971 17.05777285 -5.35182438 18.90948452 -8.125 20.75 C-8.85332031 21.24371094 -9.58164062 21.73742187 -10.33203125 22.24609375 C-15.56920061 25.77948897 -19.38600591 28.15025984 -26 27 C-28.99097304 24.45767292 -29.84202557 22.8425303 -30.5625 19 C-29.57669539 13.74237542 -25.26614151 11.10130242 -21.08203125 8.140625 C-19.66259818 7.17157634 -18.23933805 6.20811207 -16.8125 5.25 C-16.08869141 4.75628906 -15.36488281 4.26257813 -14.61914062 3.75390625 C-9.12651794 0.02403224 -6.86724013 -1.44573476 0 0 Z " fill="#2671AD" transform="translate(415,701)"/>
<path d="M0 0 C4.6929262 1.32818666 4.6929262 1.32818666 6.3125 3.9375 C7.30799067 7.2083979 7.64118536 9.10483041 6.375 12.3125 C0.73694617 19.48820487 -7.23059451 28.95346786 -16.5 30.625 C-20.26110588 29.81378109 -21.52125849 29.10354528 -23.6875 25.9375 C-24.76737203 22.55390098 -25.11623302 20.82453384 -23.5546875 17.59375 C-21.33488188 14.43586752 -18.73660255 11.93164862 -15.875 9.375 C-15.36646484 8.90642578 -14.85792969 8.43785156 -14.33398438 7.95507812 C-5.45358331 -0.09243362 -5.45358331 -0.09243362 0 0 Z " fill="#2671AD" transform="translate(458.6875,662.0625)"/>
<path d="M0 0 C3.16585884 2.08280187 3.88596426 3.67056342 5.125 7.25 C4.94421293 12.67361204 2.4815238 15.03976668 -1 19 C-1.639375 19.82757812 -2.27875 20.65515625 -2.9375 21.5078125 C-7.96441538 27.77182034 -7.96441538 27.77182034 -12.6875 28.8125 C-16.50219791 27.87681938 -18.34417602 26.89016139 -21 24 C-22 21.625 -22 21.625 -22 19 C-19.88124436 13.92079128 -16.89691188 10.15483763 -13.25 6.125 C-12.74984375 5.53203125 -12.2496875 4.9390625 -11.734375 4.328125 C-8.04065203 0.238646 -5.72551662 -0.84441072 0 0 Z " fill="#2671AD" transform="translate(498,618)"/>
</svg>
